<?xml version="1.0" encoding="UTF-8" standalone="no"?>
<!DOCTYPE svg PUBLIC "-//W3C//DTD SVG 1.1//EN" "http://www.w3.org/Graphics/SVG/1.1/DTD/svg11.dtd">
<svg version="1.1" xmlns="http://www.w3.org/2000/svg" xmlns:xlink="http://www.w3.org/1999/xlink" preserveAspectRatio="xMidYMid meet" viewBox="0 0 640 640" width="640" height="640"><defs><path d="M95.79 310.7C122.01 283.88 331.77 69.32 357.99 42.5C413.38 -14.16 503.43 -14.17 558.83 42.5C613.69 98.62 613.76 189.16 558.83 245.35C535.97 268.7 353.12 455.55 330.27 478.91C292.95 517.08 231.98 516.55 195.29 477.66C159.95 440.2 161.08 380.82 197.1 343.97C215.07 325.62 358.82 178.78 376.78 160.43C384.51 152.54 397.17 152.4 405.07 160.13C407.92 162.92 430.78 185.3 433.64 188.1C441.54 195.83 441.67 208.49 433.94 216.38C415.98 234.74 272.25 381.56 254.28 399.91C248.12 406.22 247.74 416.69 253.47 422.77C258.94 428.57 267.53 428.66 273.08 422.98C295.94 399.62 478.79 212.77 501.64 189.42C526.16 164.34 526.16 123.51 501.63 98.42C477.64 73.89 439.18 73.87 415.19 98.42C388.97 125.24 179.21 339.8 152.99 366.62C109.53 411.07 108.86 483.02 151.5 527.01C194.01 570.88 262.73 570.93 305.32 527.37C326.83 505.37 498.89 329.37 520.4 307.37C528.12 299.47 540.78 299.33 548.68 307.05C551.54 309.84 574.41 332.21 577.27 335C585.17 342.73 585.32 355.39 577.59 363.29C556.09 385.29 384.03 561.28 362.52 583.28C288.05 659.46 167.59 658.55 94.06 582.68C21.02 507.32 22.38 385.79 95.79 310.7Z" id="hgTO9dCC"></path></defs><g><g><g><use xlink:href="#hgTO9dCC" opacity="1" fill="#0988ff" fill-opacity="1"></use><g><use xlink:href="#hgTO9dCC" opacity="1" fill-opacity="0" stroke="#000000" stroke-width="1" stroke-opacity="0"></use></g></g></g></g></svg>